<svg aria-hidden="true" style="position: absolute; width: 0; height: 0; overflow: hidden;" version="1.1" xmlns="http://www.w3.org/2000/svg" xmlns:xlink="http://www.w3.org/1999/xlink">
<defs>
<symbol id="icon-facebook" viewBox="0 0 32 32">
<path fill="#fa5252" style="fill: var(--color1, #fa5252)" d="M23.367 12h-4.7v-2.667c0-1.376 0.112-2.243 2.084-2.243h2.491v-4.24c-1.212-0.125-2.431-0.187-3.651-0.184-3.617 0-6.257 2.209-6.257 6.265v3.068h-4v5.333l4-0.001v12.001h5.333v-12.004l4.088-0.001 0.612-5.328z"></path>
</symbol>
<symbol id="icon-instagram" viewBox="0 0 32 32">
<path fill="#fa5252" style="fill: var(--color1, #fa5252)" d="M7.68 1.92c-3.174 0-5.76 2.586-5.76 5.76v16.64c0 3.174 2.586 5.76 5.76 5.76h16.64c3.174 0 5.76-2.586 5.76-5.76v-16.64c0-3.174-2.586-5.76-5.76-5.76h-16.64zM24.32 5.12h1.92c0.352 0 0.64 0.288 0.64 0.64v1.92c0 0.352-0.288 0.64-0.64 0.64h-1.92c-0.352 0-0.64-0.288-0.64-0.64v-1.92c0-0.352 0.288-0.64 0.64-0.64zM16 6.4c3.411 0 6.413 1.792 8.115 4.48h2.765v12.8c0 1.766-1.434 3.2-3.2 3.2h-15.36c-1.766 0-3.2-1.434-3.2-3.2v-12.8h2.765c1.702-2.688 4.704-4.48 8.115-4.48zM16 7.68c-4.589 0-8.32 3.731-8.32 8.32s3.731 8.32 8.32 8.32c4.589 0 8.32-3.731 8.32-8.32s-3.731-8.32-8.32-8.32zM16 10.24c3.174 0 5.76 2.586 5.76 5.76s-2.586 5.76-5.76 5.76c-3.174 0-5.76-2.586-5.76-5.76s2.586-5.76 5.76-5.76z"></path>
</symbol>
<symbol id="icon-twitter" viewBox="0 0 32 32">
<path fill="#fa5252" style="fill: var(--color1, #fa5252)" d="M32.040 6.68c-1.183 0.525-2.45 0.877-3.782 1.037 1.36-0.815 2.405-2.105 2.895-3.64-1.27 0.752-2.683 1.3-4.18 1.595-1.2-1.28-2.91-2.078-4.802-2.078-3.635 0-6.582 2.945-6.582 6.58 0 0.515 0.060 1.018 0.172 1.5-5.47-0.275-10.318-2.895-13.565-6.878-0.567 0.975-0.89 2.105-0.89 3.31 0 2.283 1.16 4.297 2.927 5.48-1.080-0.035-2.095-0.332-2.982-0.825 0 0.027 0 0.055 0 0.082 0 3.19 2.27 5.848 5.277 6.455-0.55 0.15-1.133 0.23-1.732 0.23-0.425 0-0.837-0.040-1.24-0.12 0.84 2.613 3.27 4.52 6.147 4.572-2.25 1.765-5.088 2.815-8.172 2.815-0.532 0-1.055-0.030-1.567-0.093 2.91 1.87 6.37 2.957 10.087 2.957 12.105 0 18.725-10.027 18.725-18.723 0-0.285-0.008-0.572-0.017-0.852 1.285-0.928 2.4-2.088 3.283-3.408z"></path>
</symbol>
</defs>
</svg>
