<svg aria-hidden="true" style="position: absolute; width: 0; height: 0; overflow: hidden;" version="1.1" xmlns="http://www.w3.org/2000/svg" xmlns:xlink="http://www.w3.org/1999/xlink">
<defs>
<symbol id="icon-user" viewBox="0 0 24 24">
<path fill="#f53838" style="fill: var(--color1, #f53838)" d="M12 10.895c0.917 0 1.796-0.364 2.444-1.012s1.012-1.527 1.012-2.444-0.364-1.796-1.012-2.444c-0.648-0.648-1.527-1.012-2.444-1.012s-1.796 0.364-2.444 1.012c-0.648 0.648-1.012 1.527-1.012 2.444s0.364 1.796 1.012 2.444c0.648 0.648 1.527 1.012 2.444 1.012zM7.103 21.263c-1.749 0-3.222-1.47-2.553-3.086 0.405-0.978 0.999-1.867 1.748-2.616s1.638-1.343 2.616-1.748c0.978-0.405 2.027-0.614 3.086-0.614s2.108 0.209 3.086 0.614c0.978 0.405 1.867 0.999 2.616 1.748s1.343 1.638 1.748 2.616c0.669 1.616-0.804 3.086-2.553 3.086h-9.795z"></path>
</symbol>
<symbol id="icon-location" viewBox="0 0 23 24">
<path fill="#f53838" style="fill: var(--color1, #f53838)" d="M18.24 9.167c0-0.882-0.174-1.756-0.511-2.572s-0.833-1.556-1.457-2.18c-0.624-0.624-1.365-1.119-2.18-1.457s-1.689-0.512-2.572-0.512c-0.883 0-1.756 0.174-2.572 0.512s-1.556 0.833-2.18 1.457c-0.624 0.624-1.119 1.365-1.457 2.18s-0.512 1.689-0.512 2.572c0 1.332 0.394 2.57 1.061 3.614h-0.008c2.266 3.547 5.667 8.866 5.667 8.866l5.667-8.866h-0.007c0.692-1.079 1.059-2.333 1.060-3.614zM11.52 12.047c-0.764 0-1.496-0.303-2.036-0.844s-0.844-1.273-0.844-2.036c0-0.764 0.303-1.496 0.844-2.036s1.273-0.844 2.036-0.844c0.764 0 1.496 0.303 2.036 0.844s0.844 1.273 0.844 2.036c0 0.764-0.303 1.496-0.844 2.036s-1.273 0.844-2.036 0.844z"></path>
</symbol>
<symbol id="icon-server" viewBox="0 0 24 24">
<path fill="#f53838" style="fill: var(--color1, #f53838)" d="M19.68 3.407h-15.36c-0.509 0-0.998 0.202-1.358 0.562s-0.562 0.848-0.562 1.358v3.84c0 0.509 0.202 0.998 0.562 1.358s0.848 0.562 1.358 0.562h15.36c0.509 0 0.998-0.202 1.358-0.562s0.562-0.848 0.562-1.358v-3.84c0-0.509-0.202-0.998-0.562-1.358s-0.848-0.562-1.358-0.562zM14.88 7.247c0 0.53-0.43 0.96-0.96 0.96s-0.96-0.43-0.96-0.96c0-0.53 0.43-0.96 0.96-0.96s0.96 0.43 0.96 0.96zM18.72 7.247c0 0.53-0.43 0.96-0.96 0.96s-0.96-0.43-0.96-0.96c0-0.53 0.43-0.96 0.96-0.96s0.96 0.43 0.96 0.96zM19.68 13.007h-15.36c-0.509 0-0.998 0.202-1.358 0.562s-0.562 0.848-0.562 1.358v3.84c0 0.509 0.202 0.998 0.562 1.358s0.848 0.562 1.358 0.562h15.36c0.509 0 0.998-0.202 1.358-0.562s0.562-0.848 0.562-1.358v-3.84c0-0.509-0.202-0.998-0.562-1.358s-0.848-0.562-1.358-0.562zM14.88 16.847c0 0.53-0.43 0.96-0.96 0.96s-0.96-0.43-0.96-0.96c0-0.53 0.43-0.96 0.96-0.96s0.96 0.43 0.96 0.96zM18.72 16.847c0 0.53-0.43 0.96-0.96 0.96s-0.96-0.43-0.96-0.96c0-0.53 0.43-0.96 0.96-0.96s0.96 0.43 0.96 0.96z"></path>
</symbol>
</defs>
</svg>
